<svg width="1254" height="1254" viewBox="0 0 1254 1254" xmlns="http://www.w3.org/2000/svg" role="img" aria-label="workplace harassment icon">
  <title>workplace harassment icon</title>
  <defs>
    <style>
      .s { fill: none; stroke: #F8C9B1; stroke-width: 34; stroke-linecap: round; stroke-linejoin: round; }
      .f { fill: #F8C9B1; stroke: none; }
    </style>
  </defs>
  <path class="s" d="M390 440C395 365 455 315 530 330C558 270 635 250 690 290C745 300 780 340 790 390C852 395 900 440 900 500H390Z"/>
  <path class="s" d="M520 585L485 670"/>
  <path class="s" d="M630 575L595 660"/>
  <path class="s" d="M740 585L705 670"/>
  <path class="s" d="M605 735C655 695 735 710 760 770"/>
  <path class="s" d="M720 770C680 835 595 860 525 825"/>
  <path class="s" d="M525 825L620 825"/>
  <path class="s" d="M590 745L520 825"/>
  <path class="s" d="M760 770L825 805"/>
</svg>
