<svg width="1254" height="1254" viewBox="0 0 1254 1254" xmlns="http://www.w3.org/2000/svg" role="img" aria-label="injunction orders icon">
  <title>injunction orders icon</title>
  <defs>
    <style>
      .s { fill: none; stroke: #F8C9B1; stroke-width: 34; stroke-linecap: round; stroke-linejoin: round; }
      .f { fill: #F8C9B1; stroke: none; }
    </style>
  </defs>
  <path class="s" d="M625 360L770 445V615L625 700L480 615V445L625 360Z"/>
  <path class="s" d="M625 460V595"/>
  <path class="s" d="M585 505V595"/>
  <path class="s" d="M665 510V595"/>
  <path class="s" d="M555 575C555 655 695 655 695 575"/>
  <path class="s" d="M400 565V690"/>
  <path class="s" d="M360 605C335 650 340 725 390 775"/>
  <path class="s" d="M845 565V690"/>
  <path class="s" d="M885 605C910 650 905 725 855 775"/>
  <path class="s" d="M535 290L510 250"/>
  <path class="s" d="M625 275V230"/>
  <path class="s" d="M715 290L740 250"/>
</svg>
