<svg width="120" height="34" viewBox="0 0 120 34" fill="none" xmlns="http://www.w3.org/2000/svg">
<path d="M16.8461 30.6293H4.97696C4.06336 30.6284 3.18748 30.2763 2.54147 29.6505C1.89546 29.0247 1.53209 28.1762 1.53108 27.2912H13.4002C14.3138 27.2921 15.1897 27.6442 15.8357 28.27C16.4817 28.8958 16.8451 29.7443 16.8461 30.6293ZM9.18859 24.6948C7.37124 24.6947 5.59472 24.1726 4.08367 23.1944C2.57262 22.2163 1.39491 20.8261 0.699452 19.1995C0.00399284 17.573 -0.17798 15.7832 0.176545 14.0565C0.531069 12.3297 1.40617 10.7436 2.69119 9.49868C3.97629 8.25382 5.61358 7.40607 7.39602 7.06263C9.17846 6.71918 11.026 6.89547 12.705 7.56919C14.384 8.24291 15.8191 9.38382 16.8288 10.8476C17.8385 12.3115 18.3775 14.0324 18.3776 15.793C18.3739 17.355 17.9499 18.8891 17.1474 20.2439C16.3706 21.5713 15.2467 22.6772 13.8888 23.4504C12.4653 24.2654 10.8421 24.6952 9.18859 24.6948ZM9.18859 10.0187C8.00969 10.0187 6.85727 10.3573 5.87705 10.9918C4.89684 11.6263 4.13285 12.5281 3.6817 13.5833C3.23056 14.6384 3.11252 15.7994 3.34251 16.9195C3.5725 18.0396 4.1402 19.0685 4.9738 19.876C5.80741 20.6836 6.86949 21.2335 8.02573 21.4564C9.18198 21.6792 10.3805 21.5648 11.4696 21.1278C12.5588 20.6907 13.4897 19.9506 14.1447 19.001C14.7996 18.0514 15.1492 16.935 15.1492 15.793C15.1474 14.2621 14.5188 12.7944 13.4014 11.7119C12.2839 10.6294 10.7689 10.0205 9.18859 10.0187Z" fill="url(#paint0_linear_126_168)"/>
<path d="M27.9901 21.0554H32.987V24H24.1755V8.34019H27.9901V21.0554ZM48.3693 8.34019V24H44.5548V17.5532H38.621V24H34.8064V8.34019H38.621V14.4747H44.5548V8.34019H48.3693Z" fill="white"/>
<path d="M56.2728 8.49696C57.9979 8.49696 59.4777 8.80926 60.712 9.43387C61.9464 10.0585 62.8907 10.9582 63.5451 12.1331C64.1994 13.3079 64.5266 14.7059 64.5266 16.3269C64.5266 17.933 64.1994 19.3235 63.5451 20.4983C62.8907 21.6583 61.9464 22.5506 60.712 23.1752C59.4777 23.785 57.9979 24.0898 56.2728 24.0898H51.6552V8.49696H56.2728ZM56.2728 22.796C58.4441 22.796 60.0948 22.2309 61.2251 21.1007C62.3702 19.9555 62.9428 18.3643 62.9428 16.3269C62.9428 14.2746 62.3702 12.6759 61.2251 11.5308C60.0948 10.3708 58.4441 9.79079 56.2728 9.79079H53.2167V22.796H56.2728ZM68.1862 9.61233C67.8739 9.61233 67.6062 9.50079 67.3831 9.27772C67.1601 9.05465 67.0485 8.77952 67.0485 8.45235C67.0485 8.12517 67.1601 7.85748 67.3831 7.64928C67.6062 7.4262 67.8739 7.31467 68.1862 7.31467C68.4985 7.31467 68.7662 7.4262 68.9893 7.64928C69.2124 7.85748 69.3239 8.12517 69.3239 8.45235C69.3239 8.77952 69.2124 9.05465 68.9893 9.27772C68.7662 9.50079 68.4985 9.61233 68.1862 9.61233ZM68.967 11.91V24.0898H67.4055V11.91H68.967ZM77.6114 11.7315C78.7566 11.7315 79.753 11.9992 80.6006 12.5346C81.4483 13.07 82.0581 13.7466 82.4298 14.5646V11.91H83.9914V24.4021C83.9914 25.5175 83.746 26.5065 83.2552 27.369C82.7793 28.2316 82.1101 28.8934 81.2476 29.3544C80.385 29.8303 79.4035 30.0682 78.303 30.0682C76.7415 30.0682 75.4402 29.6964 74.3992 28.9529C73.373 28.2093 72.7336 27.198 72.4807 25.9191H74.0199C74.2876 26.7667 74.7933 27.4434 75.5369 27.949C76.2953 28.4547 77.2173 28.7075 78.303 28.7075C79.0912 28.7075 79.7976 28.5365 80.4222 28.1944C81.0468 27.8672 81.5375 27.3765 81.8945 26.7221C82.2514 26.0678 82.4298 25.2944 82.4298 24.4021V21.3906C82.0432 22.2235 81.426 22.915 80.5783 23.4652C79.7455 24.0006 78.7566 24.2683 77.6114 24.2683C76.4961 24.2683 75.4922 24.008 74.5999 23.4875C73.7225 22.967 73.031 22.2309 72.5254 21.2791C72.0346 20.3273 71.7892 19.2268 71.7892 17.9776C71.7892 16.7284 72.0346 15.6353 72.5254 14.6984C73.031 13.7466 73.7225 13.0179 74.5999 12.5123C75.4922 11.9918 76.4961 11.7315 77.6114 11.7315ZM82.4298 17.9999C82.4298 17.0184 82.2291 16.1558 81.8275 15.4123C81.426 14.6687 80.8758 14.0961 80.1768 13.6946C79.4927 13.2931 78.7343 13.0923 77.9014 13.0923C77.0389 13.0923 76.2656 13.2856 75.5815 13.6723C74.8974 14.0589 74.3546 14.6241 73.953 15.3676C73.5664 16.0964 73.373 16.9663 73.373 17.9776C73.373 18.974 73.5664 19.8514 73.953 20.6099C74.3546 21.3535 74.8974 21.926 75.5815 22.3276C76.2656 22.7142 77.0389 22.9076 77.9014 22.9076C78.7343 22.9076 79.4927 22.7068 80.1768 22.3053C80.8758 21.9037 81.426 21.3312 81.8275 20.5876C82.2291 19.844 82.4298 18.9814 82.4298 17.9999ZM88.337 9.61233C88.0247 9.61233 87.757 9.50079 87.5339 9.27772C87.3108 9.05465 87.1993 8.77952 87.1993 8.45235C87.1993 8.12517 87.3108 7.85748 87.5339 7.64928C87.757 7.4262 88.0247 7.31467 88.337 7.31467C88.6493 7.31467 88.9169 7.4262 89.14 7.64928C89.3631 7.85748 89.4746 8.12517 89.4746 8.45235C89.4746 8.77952 89.3631 9.05465 89.14 9.27772C88.9169 9.50079 88.6493 9.61233 88.337 9.61233ZM89.1177 11.91V24.0898H87.5562V11.91H89.1177ZM94.6838 13.2261V20.7883C94.6838 21.5319 94.825 22.045 95.1076 22.3276C95.3902 22.6101 95.8884 22.7514 96.6022 22.7514H98.0299V24.0898H96.3568C95.2563 24.0898 94.4384 23.837 93.903 23.3314C93.3676 22.8109 93.0999 21.9632 93.0999 20.7883V13.2261H91.4046V11.91H93.0999V8.85388H94.6838V11.91H98.0299V13.2261H94.6838ZM99.8913 17.9776C99.8913 16.7284 100.137 15.6353 100.627 14.6984C101.133 13.7466 101.825 13.0179 102.702 12.5123C103.594 11.9918 104.598 11.7315 105.714 11.7315C106.874 11.7315 107.87 11.9992 108.703 12.5346C109.55 13.07 110.16 13.7541 110.532 14.5869V11.91H112.093V24.0898H110.532V21.3906C110.145 22.2235 109.528 22.915 108.68 23.4652C107.848 24.0006 106.851 24.2683 105.691 24.2683C104.591 24.2683 103.594 24.008 102.702 23.4875C101.825 22.967 101.133 22.2309 100.627 21.2791C100.137 20.3273 99.8913 19.2268 99.8913 17.9776ZM110.532 17.9999C110.532 17.0184 110.331 16.1558 109.93 15.4123C109.528 14.6687 108.978 14.0961 108.279 13.6946C107.595 13.2931 106.836 13.0923 106.004 13.0923C105.141 13.0923 104.368 13.2856 103.684 13.6723C102.999 14.0589 102.457 14.6241 102.055 15.3676C101.668 16.0964 101.475 16.9663 101.475 17.9776C101.475 18.974 101.668 19.8514 102.055 20.6099C102.457 21.3535 102.999 21.926 103.684 22.3276C104.368 22.7142 105.141 22.9076 106.004 22.9076C106.836 22.9076 107.595 22.7068 108.279 22.3053C108.978 21.9037 109.528 21.3312 109.93 20.5876C110.331 19.844 110.532 18.9814 110.532 17.9999ZM117.22 7.58236V24.0898H115.658V7.58236H117.22Z" fill="white"/>
<defs>
<linearGradient id="paint0_linear_126_168" x1="-6.79826e-07" y1="6.76152" x2="21.4743" y2="31.3032" gradientUnits="userSpaceOnUse">
<stop stop-color="#3B86F8"/>
<stop offset="0.364241" stop-color="#9469E7"/>
<stop offset="0.694999" stop-color="#FE3C53"/>
<stop offset="1" stop-color="#FF6C28"/>
</linearGradient>
</defs>
</svg>
