<svg width="37" height="37" viewBox="0 0 37 37" fill="none" xmlns="http://www.w3.org/2000/svg">
<circle cx="18.2798" cy="18.2798" r="18.2798" fill="#EC393D"/>
<path d="M11.3373 23.832H8.60208V15.9524H6.13615V13.7132H13.8032V15.9524H11.3373V23.832ZM15.2462 23.832V13.7132H17.9814V21.6212H21.8787V23.832H15.2462ZM30.1131 20.7567C30.1131 21.3047 29.9714 21.8243 29.688 22.3156C29.414 22.8069 28.9841 23.2085 28.3983 23.5202C27.822 23.8226 27.0709 23.9738 26.1449 23.9738C25.682 23.9738 25.2757 23.9501 24.9262 23.9029C24.586 23.8651 24.2648 23.799 23.9625 23.7045C23.6601 23.61 23.3483 23.4872 23.0271 23.336V20.8984C23.5751 21.1724 24.1278 21.385 24.6852 21.5362C25.2427 21.6779 25.7481 21.7487 26.2016 21.7487C26.4756 21.7487 26.6977 21.7157 26.8677 21.6495C27.0378 21.5834 27.1653 21.4936 27.2504 21.3803C27.3354 21.2669 27.3779 21.1393 27.3779 20.9976C27.3779 20.8181 27.3165 20.6669 27.1937 20.5441C27.0709 20.4213 26.8772 20.2937 26.6126 20.1615C26.3481 20.0292 25.9938 19.8639 25.5497 19.6655C25.1718 19.4954 24.8317 19.3159 24.5293 19.1269C24.227 18.938 23.9672 18.7254 23.7499 18.4892C23.542 18.253 23.3814 17.979 23.268 17.6672C23.1547 17.346 23.098 16.968 23.098 16.5334C23.098 15.8815 23.2586 15.3383 23.5798 14.9037C23.901 14.4596 24.3451 14.1289 24.912 13.9116C25.4883 13.6849 26.1544 13.5715 26.9102 13.5715C27.5716 13.5715 28.1668 13.6471 28.6959 13.7982C29.225 13.94 29.6974 14.1053 30.1131 14.2943L29.277 16.4059C28.8424 16.2075 28.4125 16.0516 27.9873 15.9382C27.5716 15.8154 27.1842 15.754 26.8252 15.754C26.589 15.754 26.3953 15.7823 26.2442 15.839C26.093 15.8957 25.9796 15.976 25.904 16.0799C25.8379 16.1744 25.8048 16.2831 25.8048 16.4059C25.8048 16.5665 25.8662 16.7082 25.9891 16.831C26.1119 16.9539 26.315 17.0909 26.5985 17.242C26.8913 17.3838 27.2882 17.568 27.7889 17.7947C28.2802 18.0121 28.6959 18.253 29.036 18.5175C29.3856 18.7726 29.6502 19.0797 29.8297 19.4387C30.0186 19.7883 30.1131 20.2276 30.1131 20.7567Z" fill="white"/>
</svg>
