<svg preserveAspectRatio="none" width="100%" height="100%" overflow="visible" style="display: block;" viewBox="0 0 31.8344 34.2832" fill="none" xmlns="http://www.w3.org/2000/svg">
<g id="tabler-icon-mail">
<path id="Vector" d="M3.98047 9.99756C3.98047 9.23985 4.25997 8.51318 4.75748 7.9774C5.25498 7.44162 5.92975 7.14063 6.63334 7.14062H25.2034C25.907 7.14063 26.5818 7.44162 27.0793 7.9774C27.5768 8.51318 27.8563 9.23985 27.8563 9.99756M3.98047 9.99756V24.2822C3.98047 25.0399 4.25997 25.7666 4.75748 26.3024C5.25498 26.8382 5.92975 27.1392 6.63334 27.1392H25.2034C25.907 27.1392 26.5818 26.8382 27.0793 26.3024C27.5768 25.7666 27.8563 25.0399 27.8563 24.2822V9.99756M3.98047 9.99756L15.9184 18.5684L27.8563 9.99756" stroke="var(--stroke-0, white)" stroke-width="1.5" stroke-linecap="round" stroke-linejoin="round"/>
</g>
</svg>
