<svg preserveAspectRatio="none" width="100%" height="100%" overflow="visible" style="display: block;" viewBox="0 0 49.1748 50.9535" fill="none" xmlns="http://www.w3.org/2000/svg">
<path id="Vector" d="M18.1629 0.0124893C19.0837 -0.0580325 19.8522 0.189798 20.7502 0.264012C20.8917 0.275704 21.1793 0.171707 21.3344 0.154066C21.5941 0.124528 21.851 0.121123 22.1122 0.117718C26.5796 0.0986828 31.047 0.102333 35.5143 0.128753L42.5238 0.11419C43.0645 0.113288 46.4425 0.0461701 46.7621 0.210803C46.8999 0.454163 48.3678 7.1953 48.3395 7.43246L48.2849 7.44222C48.0454 7.18565 47.7299 6.59092 47.5124 6.27523C47.078 5.64488 46.6136 5.0261 46.0598 4.49988C42.3581 0.982237 38.8057 0.745645 33.9742 0.741379C32.1761 0.724764 30.3775 0.73822 28.5796 0.781665C28.6265 1.42678 28.5899 2.45491 28.5875 3.1312L28.5842 7.22389L28.5958 19.3708C31.8881 19.2435 35.9799 19.9747 38.6334 17.7119C38.9452 17.4485 39.2152 17.1393 39.4338 16.7948C39.6389 16.4698 39.9466 15.5503 40.1481 15.4393L40.1727 15.4786L40.1682 22.0504C40.1669 22.2973 40.1973 23.6038 40.1563 23.7509C39.9905 23.6963 39.6668 22.7341 39.5237 22.5214C37.3362 19.2722 32.0112 20.0791 28.5925 20.0161C28.5955 21.4955 28.5647 22.9807 28.5779 24.4578C28.8224 24.8061 29.3215 25.3473 29.6106 25.7169C30.4316 26.7663 31.1073 27.7366 31.7351 28.9082C33.1094 31.4743 33.3716 34.1254 33.0298 36.9725C32.9502 37.6334 32.8169 38.5799 32.6106 39.2219C33.4618 39.2071 34.4628 39.1776 35.2891 39.2182C40.2666 39.4635 45.7176 37.4447 48.6021 33.2277C48.7038 33.0788 49.0025 32.4889 49.144 32.415L49.1748 32.4634C49.0205 32.9869 48.8548 33.8099 48.726 34.3625L47.9149 37.7897C47.8119 38.2233 47.5522 39.4738 47.3566 39.7946C47.2294 39.8574 47.1112 39.8877 46.9685 39.8877C45.8739 39.8869 44.7761 39.8844 43.6819 39.8869L35.2431 39.8524C34.6807 39.8504 33.0147 39.8085 32.5076 39.8762C32.3139 40.0223 32.2282 40.5905 32.1322 40.8436C31.962 41.2936 31.7823 41.7326 31.5829 42.1708C30.1571 45.3153 27.6521 47.8449 24.5218 49.3017C23.7432 49.6652 23.0581 49.8527 22.2668 50.1481C21.0108 50.5407 19.9724 50.708 18.6678 50.8463C11.1171 51.6455 2.96341 47.9631 0.634464 40.3123C-0.160476 37.7007 -0.221193 34.3547 0.524681 31.7082C1.36274 28.7925 3.3355 26.3347 6.00102 24.8857C8.4646 23.5185 11.9734 22.7974 14.8409 22.8359C14.9086 22.8368 14.9385 22.909 14.9644 22.9583C14.8079 23.2587 13.9375 23.2088 13.6012 23.2662C0.158944 25.5622 -1.05433 46.2585 12.4223 49.577C15.8499 50.4209 20.2516 50.2687 23.3796 48.4303C25.7306 47.0704 27.502 44.8965 28.3586 42.3193C28.6661 41.3864 28.7473 40.7681 28.9808 39.8619C28.2527 39.9054 27.2428 39.8791 26.499 39.8807L20.8315 39.8561C22.5931 38.9347 23.0847 38.3144 23.4604 36.2751C23.5044 35.9928 23.5758 35.6757 23.5837 35.391C23.6545 32.8257 23.5987 30.2567 23.6238 27.6906C23.591 27.3337 23.7198 25.9827 23.5044 25.7509C20.2077 22.2039 16.1189 19.4924 12.9988 15.769C11.2566 13.6898 9.93338 11.8176 9.63664 9.03953C9.38118 6.85134 10.0173 4.65245 11.4017 2.93863C13.1754 0.776619 15.5501 0.277428 18.1629 0.0124893ZM20.2369 17.2581C21.2604 18.0826 22.6474 19.2441 23.6912 19.9913C23.5238 19.3547 23.6087 17.3993 23.6103 16.6078L23.6189 8.69476C23.6191 6.78008 23.7995 4.31969 23.1785 2.50003C23.0759 2.19932 21.959 1.55297 21.6543 1.32081C20.5441 0.603453 19.3427 0.330966 18.0276 0.427867C16.1889 0.497814 14.4058 1.10818 13.1111 2.48641C12.0884 3.57517 11.7946 5.13785 11.8257 6.59432C11.8932 9.75952 14.6558 12.4131 16.8244 14.4328C17.4843 15.0475 18.3175 15.6857 19.0163 16.27C19.176 16.4035 20.0863 17.1792 20.2369 17.2581Z" fill="var(--fill-0, white)"/>
</svg>
