<svg preserveAspectRatio="none" width="100%" height="100%" overflow="visible" style="display: block;" viewBox="0 0 20 20" fill="none" xmlns="http://www.w3.org/2000/svg">
<g id="shield_6011823 1" clip-path="url(#clip0_2010_74)">
<path id="Vector" d="M10.3991 0.101753C10.1503 -0.0339182 9.84967 -0.0339182 9.60092 0.101753L7.6293 1.1772C6.03801 2.04518 4.25436 2.5 2.44173 2.5H1.66667C1.20643 2.5 0.833333 2.8731 0.833333 3.33333V7.68517C0.833333 12.2438 3.31499 16.441 7.30934 18.6378L9.59842 19.8968C9.8485 20.0344 10.1515 20.0344 10.4016 19.8968L12.6907 18.6378C16.685 16.441 19.1667 12.2438 19.1667 7.68517V3.33333C19.1667 2.8731 18.7936 2.5 18.3333 2.5H17.5583C15.7457 2.5 13.962 2.04518 12.3707 1.1772L10.3991 0.101753Z" fill="var(--fill-0, #E79C7D)"/>
</g>
<defs>
<clipPath id="clip0_2010_74">
<rect width="20" height="20" fill="white"/>
</clipPath>
</defs>
</svg>
