<svg preserveAspectRatio="none" width="100%" height="100%" overflow="visible" style="display: block;" viewBox="0 0 29 29" fill="none" xmlns="http://www.w3.org/2000/svg">
<g id="tabler-icon-brand-whatsapp">
<path id="Vector" d="M10.875 12.0828C10.875 12.243 10.9387 12.3967 11.052 12.51C11.1653 12.6233 11.3189 12.687 11.4792 12.687C11.6394 12.687 11.7931 12.6233 11.9064 12.51C12.0197 12.3967 12.0833 12.243 12.0833 12.0828V10.8745C12.0833 10.7142 12.0197 10.5606 11.9064 10.4473C11.7931 10.334 11.6394 10.2703 11.4792 10.2703C11.3189 10.2703 11.1653 10.334 11.052 10.4473C10.9387 10.5606 10.875 10.7142 10.875 10.8745V12.0828ZM10.875 12.0828C10.875 13.6852 11.5115 15.2219 12.6446 16.3549C13.7776 17.4879 15.3143 18.1245 16.9167 18.1245M16.9167 18.1245H18.125C18.2852 18.1245 18.4389 18.0608 18.5522 17.9475C18.6655 17.8342 18.7292 17.6805 18.7292 17.5203C18.7292 17.3601 18.6655 17.2064 18.5522 17.0931C18.4389 16.9798 18.2852 16.9161 18.125 16.9161H16.9167C16.7564 16.9161 16.6028 16.9798 16.4895 17.0931C16.3762 17.2064 16.3125 17.3601 16.3125 17.5203C16.3125 17.6805 16.3762 17.8342 16.4895 17.9475C16.6028 18.0608 16.7564 18.1245 16.9167 18.1245ZM3.625 25.3741L5.61875 20.7825C4.09343 18.6172 3.41072 15.9697 3.69876 13.3368C3.9868 10.704 5.22578 8.26672 7.18319 6.48248C9.14059 4.69823 11.6819 3.68965 14.3301 3.64601C16.9783 3.60237 19.5514 4.52668 21.5666 6.24546C23.5817 7.96425 24.9003 10.3594 25.2749 12.9813C25.6496 15.6033 25.0544 18.2718 23.6013 20.4862C22.1481 22.7005 19.9368 24.3084 17.3824 25.0081C14.8279 25.7079 12.1058 25.4513 9.72708 24.2866L3.625 25.3741Z" stroke="var(--stroke-0, white)" stroke-width="1.5" stroke-linecap="round" stroke-linejoin="round"/>
</g>
</svg>
